# xmcd
#
# Track frame offsets:
#	150
#	29468
#	52305
#	74217
#	98225
#	120812
#	148893
#	169676
#	201056
#	216519
#	230341
#	252997
#	272304
#	301153
#	318117
#
# Disc length: 4451 seconds
#
# Revision: 0
# Processed by: cddbd v1.5.1PL2 Copyright (c) Steve Scherf et al.
# Submitted via: EasyCDDAExtractor 9.0.0.1
#
DISCID=dc11610f
DTITLE=Jerry Garcia and Phil Lesh with Leon Russell - Armadillo World Headquar
DTITLE=ters 11-23-1972
DYEAR=1972
DGENRE=Blues
TTITLE0=Hi Heel Sneakers
TTITLE1=Honky Tonk Angel
TTITLE2=Closin' Time
TTITLE3=Me and Bobby McGee
TTITLE4=Stormy Monday
TTITLE5=That's All Right Mama
TTITLE6=Come On In My Kitchen
TTITLE7=T For Texas
TTITLE8=San Antone
TTITLE9=Sugar Foot Rag
TTITLE10=I'm So Lonely I Could Cry
TTITLE11=Jambalaya
TTITLE12=Today I Started Loving You Again
TTITLE13=Columbus Stockade Blues
TTITLE14=Honky Tonkin'
EXTD=
EXTT0=
EXTT1=
EXTT2=
EXTT3=
EXTT4=
EXTT5=
EXTT6=
EXTT7=
EXTT8=
EXTT9=
EXTT10=
EXTT11=
EXTT12=
EXTT13=
EXTT14=
PLAYORDER=
